<svg width="72" height="72" viewBox="0 0 72 72" version="1.1" xmlns="http://www.w3.org/2000/svg" xmlns:xlink="http://www.w3.org/1999/xlink">
<title>Component 9</title>
<desc>Created using Figma</desc>
<g id="Canvas" transform="translate(678 -254)">
<g id="Component 9">
<g id="Ellipse" filter="url(#filter0_d)">
<g id="Ellipse">
<use xlink:href="#path0_fill" transform="matrix(-1 0 0 -1 -614 316)" fill="#bfbfbf"/>
<mask id="mask0_outline_ins">
<use xlink:href="#path0_fill" fill="white" transform="matrix(-1 0 0 -1 -614 316)"/>
</mask>
<g mask="url(#mask0_outline_ins)">
<use xlink:href="#path1_stroke_2x" transform="matrix(-1 0 0 -1 -614 316)" fill="#bfbfbf"/>
</g>
</g>
</g>
<g id="Rectangle">
<g id="Rectangle">
<use xlink:href="#path2_fill" transform="translate(-654 273)" fill="#FFFFFF"/>
</g>
<g id="Rectangle 2">
<use xlink:href="#path3_fill" transform="translate(-651 276)" fill="#bfbfbf"/>
</g>
<g id="Rectangle 2.1">
<use xlink:href="#path3_fill" transform="translate(-642 276)" fill="#bfbfbf"/>
</g>
<g id="Rectangle 2.2">
<use xlink:href="#path3_fill" transform="translate(-651 284)" fill="#bfbfbf"/>
</g>
<g id="Rectangle 2.3">
<use xlink:href="#path3_fill" transform="translate(-642 284)" fill="#bfbfbf"/>
</g>
</g>
</g>
</g>
<defs>
<filter id="filter0_d" filterUnits="userSpaceOnUse" x="-678" y="254" width="72" height="72" color-interpolation-filters="sRGB">
<feFlood flood-opacity="0" result="BackgroundImageFix"/>
<feColorMatrix in="SourceAlpha" type="matrix" values="0 0 0 0 0 0 0 0 0 0 0 0 0 0 0 0 0 0 255 0"/>
<feOffset dx="2" dy="4"/>
<feGaussianBlur stdDeviation="3"/>
<feColorMatrix type="matrix" values="0 0 0 0 0 0 0 0 0 0 0 0 0 0 0 0 0 0 0.25 0"/>
<feBlend mode="normal" in2="BackgroundImageFix" result="effect1_dropShadow"/>
<feBlend mode="normal" in="SourceGraphic" in2="effect1_dropShadow" result="shape"/>
</filter>
<path id="path0_fill" d="M 60 30C 60 46.5685 46.5685 60 30 60C 13.4315 60 0 46.5685 0 30C 0 13.4315 13.4315 0 30 0C 46.5685 0 60 13.4315 60 30Z"/>
<path id="path1_stroke_2x" d="M 58 30C 58 45.464 45.464 58 30 58L 30 62C 47.6731 62 62 47.6731 62 30L 58 30ZM 30 58C 14.536 58 2 45.464 2 30L -2 30C -2 47.6731 12.3269 62 30 62L 30 58ZM 2 30C 2 14.536 14.536 2 30 2L 30 -2C 12.3269 -2 -2 12.3269 -2 30L 2 30ZM 30 2C 45.464 2 58 14.536 58 30L 62 30C 62 12.3269 47.6731 -2 30 -2L 30 2Z"/>
<path id="path2_fill" d="M 0 2C 0 0.895431 0.895431 0 2 0L 18 0C 19.1046 0 20 0.895431 20 2L 20 25L 0 25L 0 2Z"/>
<path id="path3_fill" d="M 0 0L 4 0L 4 5L 0 5L 0 0Z"/>
</defs>
</svg>
