<svg width="72" height="72" viewBox="0 0 72 72" version="1.1" xmlns="http://www.w3.org/2000/svg" xmlns:xlink="http://www.w3.org/1999/xlink">
<title>Component 11</title>
<desc>Created using Figma</desc>
<g id="Canvas" transform="translate(678 -436)">
<g id="Component 11">
<g id="Ellipse" filter="url(#filter0_d)">
<g id="Ellipse">
<use xlink:href="#path0_fill" transform="matrix(-1 0 0 -1 -614 498)" fill="#6AB252"/>
<mask id="mask0_outline_ins">
<use xlink:href="#path0_fill" fill="white" transform="matrix(-1 0 0 -1 -614 498)"/>
</mask>
<g mask="url(#mask0_outline_ins)">
<use xlink:href="#path1_stroke_2x" transform="matrix(-1 0 0 -1 -614 498)" fill="#6AB252"/>
</g>
</g>
</g>
<g id="Vector">
<use xlink:href="#path2_stroke" transform="matrix(0.766044 -0.642788 0.642788 0.766044 -659 467.185)" fill="#FFFFFF"/>
</g>
<g id="Ellipse" filter="url(#filter1_d)">
<g id="Ellipse">
<use xlink:href="#path0_fill" transform="matrix(-1 0 0 -1 -614 498)" fill="#6AB252"/>
<mask id="mask1_outline_ins">
<use xlink:href="#path0_fill" fill="white" transform="matrix(-1 0 0 -1 -614 498)"/>
</mask>
<g mask="url(#mask1_outline_ins)">
<use xlink:href="#path1_stroke_2x" transform="matrix(-1 0 0 -1 -614 498)" fill="#6AB252"/>
</g>
</g>
</g>
<g id="Vector">
<use xlink:href="#path3_stroke" transform="matrix(0.766044 -0.642788 0.642788 0.766044 -653 468.091)" fill="#FFFFFF"/>
</g>
</g>
</g>
<defs>
<filter id="filter0_d" filterUnits="userSpaceOnUse" x="-678" y="436" width="72" height="72" color-interpolation-filters="sRGB">
<feFlood flood-opacity="0" result="BackgroundImageFix"/>
<feColorMatrix in="SourceAlpha" type="matrix" values="0 0 0 0 0 0 0 0 0 0 0 0 0 0 0 0 0 0 255 0"/>
<feOffset dx="2" dy="4"/>
<feGaussianBlur stdDeviation="3"/>
<feColorMatrix type="matrix" values="0 0 0 0 0 0 0 0 0 0 0 0 0 0 0 0 0 0 0.25 0"/>
<feBlend mode="normal" in2="BackgroundImageFix" result="effect1_dropShadow"/>
<feBlend mode="normal" in="SourceGraphic" in2="effect1_dropShadow" result="shape"/>
</filter>
<filter id="filter1_d" filterUnits="userSpaceOnUse" x="-678" y="436" width="72" height="72" color-interpolation-filters="sRGB">
<feFlood flood-opacity="0" result="BackgroundImageFix"/>
<feColorMatrix in="SourceAlpha" type="matrix" values="0 0 0 0 0 0 0 0 0 0 0 0 0 0 0 0 0 0 255 0"/>
<feOffset dx="2" dy="4"/>
<feGaussianBlur stdDeviation="3"/>
<feColorMatrix type="matrix" values="0 0 0 0 0 0 0 0 0 0 0 0 0 0 0 0 0 0 0.25 0"/>
<feBlend mode="normal" in2="BackgroundImageFix" result="effect1_dropShadow"/>
<feBlend mode="normal" in="SourceGraphic" in2="effect1_dropShadow" result="shape"/>
</filter>
<path id="path0_fill" d="M 60 30C 60 46.5685 46.5685 60 30 60C 13.4315 60 0 46.5685 0 30C 0 13.4315 13.4315 0 30 0C 46.5685 0 60 13.4315 60 30Z"/>
<path id="path1_stroke_2x" d="M 58 30C 58 45.464 45.464 58 30 58L 30 62C 47.6731 62 62 47.6731 62 30L 58 30ZM 30 58C 14.536 58 2 45.464 2 30L -2 30C -2 47.6731 12.3269 62 30 62L 30 58ZM 2 30C 2 14.536 14.536 2 30 2L 30 -2C 12.3269 -2 -2 12.3269 -2 30L 2 30ZM 30 2C 45.464 2 58 14.536 58 30L 62 30C 62 12.3269 47.6731 -2 30 -2L 30 2Z"/>
<path id="path2_stroke" d="M 2 0C 2 -1.10457 1.10457 -2 0 -2C -1.10457 -2 -2 -1.10457 -2 0L 2 0ZM 0 14.9234L -2 14.9234C -2 16.028 -1.10457 16.9234 4.44089e-16 16.9234L 0 14.9234ZM 29.8468 16.9234C 30.9514 16.9234 31.8468 16.028 31.8468 14.9234C 31.8468 13.8188 30.9514 12.9234 29.8468 12.9234L 29.8468 16.9234ZM -2 0L -2 14.9234L 2 14.9234L 2 0L -2 0ZM 0 16.9234L 29.8468 16.9234L 29.8468 12.9234L 0 12.9234L 0 16.9234Z"/>
<path id="path3_stroke" d="M 2 0C 2 -1.10457 1.10457 -2 0 -2C -1.10457 -2 -2 -1.10457 -2 0L 2 0ZM 0 10.1832L -2 10.1832C -2 11.2878 -1.10457 12.1832 4.44089e-16 12.1832L 0 10.1832ZM 20.3664 12.1832C 21.471 12.1832 22.3664 11.2878 22.3664 10.1832C 22.3664 9.07863 21.471 8.1832 20.3664 8.1832L 20.3664 12.1832ZM -2 0L -2 10.1832L 2 10.1832L 2 0L -2 0ZM 0 12.1832L 20.3664 12.1832L 20.3664 8.1832L 0 8.1832L 0 12.1832Z"/>
</defs>
</svg>
